<?xml version="1.0" encoding="UTF-8" standalone="no"?>
<!-- Created with Inkscape (http://www.inkscape.org/) -->

<svg
   version="1.1"
   id="svg182"
   width="310"
   height="295"
   viewBox="0 0 310 294.99999"
   xmlns="http://www.w3.org/2000/svg"
   xmlns:svg="http://www.w3.org/2000/svg">
  <defs
     id="defs186" />
  <g
     id="g503"
     transform="matrix(4.0738176,0,0,4.0738176,-1439.5344,-1109.9736)">
    <path
       d="m 391.40985,330.7862 29.762,-29.762 -27.786,-27.785 v 5.302 l 22.483,22.483 -24.459,24.46 -24.459,-24.46 22.442,-22.441 v -5.303 l -27.745,27.744 z"
       style="fill:#959595;fill-opacity:1;fill-rule:evenodd;stroke:none"
       id="path222" />
    <path
       d="m 388.75865,284.5194 0.634,-0.634 v 5.302 l -11.836,11.837 13.853,13.854 13.854,-13.854 -11.878,-11.878 v -5.303 l 0.676,0.676 13.853,13.854 2.652,2.651 -2.652,2.652 -13.853,13.854 -2.652,2.651 -2.651,-2.651 -13.854,-13.854 -2.651,-2.652 2.651,-2.651 z"
       style="fill:#959595;fill-opacity:1;fill-rule:evenodd;stroke:none"
       id="path226" />
    <path
       d="m 382.85945,301.0247 8.551,-8.551 8.55,8.551 -8.55,8.551 z"
       style="fill:#dfd500;fill-opacity:1;fill-rule:evenodd;stroke:none"
       id="path230" />
    <path
       d="m 355.32885,337.3609 v 2.914 h 0.668 l 2.716,-2.914 h 0.999 l -3.064,3.225 3.421,3.448 h -1.025 l -3.056,-3.1 h -0.659 v 3.1 h -0.739 v -6.673 z m 5.506,0 h 0.739 v 2.824 h 2.227 c 0.49,0 0.88,0.066 1.168,0.198 0.288,0.13 0.497,0.337 0.626,0.62 0.129,0.283 0.193,0.657 0.193,1.123 0,0.456 -0.067,0.823 -0.199,1.1 -0.132,0.279 -0.343,0.483 -0.632,0.613 -0.29,0.13 -0.669,0.195 -1.139,0.195 h -2.983 z m 0.739,3.493 v 2.512 h 2.201 c 0.342,0 0.607,-0.04 0.79,-0.122 0.184,-0.082 0.308,-0.21 0.375,-0.385 0.067,-0.176 0.1,-0.42 0.1,-0.733 0,-0.345 -0.042,-0.607 -0.125,-0.789 -0.083,-0.181 -0.223,-0.305 -0.419,-0.377 -0.196,-0.071 -0.475,-0.106 -0.837,-0.106 z m 6.023,3.18 h -0.739 v -6.673 h 0.739 z m 2.056,-2.61 v 2.61 h -0.739 v -6.673 h 3.18 c 0.398,0 0.728,0.067 0.991,0.202 0.261,0.135 0.457,0.345 0.588,0.63 0.129,0.285 0.194,0.646 0.194,1.084 0,0.538 -0.074,0.963 -0.223,1.276 -0.148,0.314 -0.384,0.537 -0.708,0.67 -0.324,0.134 -0.759,0.201 -1.305,0.201 z m 0,-0.651 h 1.773 c 0.434,0 0.768,-0.031 1.004,-0.095 0.234,-0.064 0.408,-0.193 0.519,-0.386 0.113,-0.193 0.17,-0.484 0.17,-0.873 0,-0.518 -0.081,-0.88 -0.241,-1.088 -0.16,-0.207 -0.454,-0.311 -0.882,-0.311 h -2.343 z m 5.951,3.261 v -5.996 h 3.377 v -0.677 h -4.125 v 6.673 z m 4.143,-6.673 h 0.739 v 2.824 h 2.228 c 0.49,0 0.879,0.066 1.167,0.198 0.288,0.13 0.497,0.337 0.626,0.62 0.129,0.283 0.193,0.657 0.193,1.123 0,0.456 -0.066,0.823 -0.199,1.1 -0.132,0.279 -0.343,0.483 -0.632,0.613 -0.29,0.13 -0.668,0.195 -1.139,0.195 h -2.983 z m 0.739,3.493 v 2.512 h 2.201 c 0.343,0 0.607,-0.04 0.79,-0.122 0.184,-0.082 0.308,-0.21 0.375,-0.385 0.067,-0.176 0.1,-0.42 0.1,-0.733 0,-0.345 -0.042,-0.607 -0.125,-0.789 -0.083,-0.181 -0.222,-0.305 -0.419,-0.377 -0.196,-0.071 -0.475,-0.106 -0.837,-0.106 z m 6.023,3.18 h -0.739 v -6.673 h 0.739 z m 4.267,-3.083 h -1.551 v -0.65 h 1.505 c 0.359,0 0.631,-0.033 0.815,-0.098 0.183,-0.065 0.312,-0.184 0.385,-0.358 0.073,-0.175 0.11,-0.432 0.11,-0.772 0,-0.283 -0.055,-0.508 -0.165,-0.671 -0.111,-0.163 -0.289,-0.279 -0.536,-0.349 -0.247,-0.07 -0.585,-0.104 -1.017,-0.104 -0.463,0 -0.815,0.039 -1.057,0.116 -0.242,0.079 -0.415,0.211 -0.517,0.398 -0.103,0.189 -0.166,0.465 -0.192,0.831 h -0.721 c 0.018,-0.426 0.077,-0.77 0.179,-1.032 0.103,-0.261 0.253,-0.461 0.45,-0.601 0.199,-0.14 0.444,-0.236 0.737,-0.286 0.292,-0.051 0.666,-0.076 1.121,-0.076 0.594,0 1.07,0.055 1.431,0.165 0.36,0.108 0.622,0.286 0.787,0.533 0.165,0.246 0.248,0.574 0.248,0.987 0,0.514 -0.088,0.897 -0.263,1.146 -0.174,0.251 -0.457,0.406 -0.85,0.465 0.47,0.062 0.792,0.223 0.968,0.48 0.173,0.258 0.261,0.653 0.261,1.186 0,0.454 -0.088,0.817 -0.263,1.086 -0.175,0.267 -0.45,0.461 -0.824,0.58 -0.374,0.119 -0.873,0.178 -1.497,0.178 -0.695,0 -1.226,-0.053 -1.594,-0.162 -0.37,-0.108 -0.63,-0.294 -0.78,-0.555 -0.151,-0.263 -0.227,-0.638 -0.227,-1.127 v -0.224 h 0.713 v 0.215 c 0,0.36 0.047,0.622 0.145,0.787 0.097,0.166 0.275,0.276 0.533,0.333 0.259,0.055 0.663,0.083 1.212,0.083 0.379,0 0.687,-0.027 0.925,-0.08 0.239,-0.054 0.423,-0.134 0.554,-0.239 0.13,-0.107 0.223,-0.238 0.276,-0.397 0.052,-0.157 0.079,-0.353 0.079,-0.585 0,-0.402 -0.109,-0.704 -0.324,-0.904 -0.217,-0.199 -0.569,-0.299 -1.056,-0.299 m 6.014,-2.931 v 2.165 h 2.227 c 0.487,0 0.876,0.066 1.164,0.198 0.29,0.13 0.498,0.337 0.628,0.619 0.129,0.282 0.195,0.656 0.195,1.124 0,0.456 -0.067,0.823 -0.199,1.102 -0.132,0.279 -0.343,0.484 -0.633,0.613 -0.288,0.129 -0.667,0.193 -1.137,0.193 h -2.985 v -6.673 h 4.412 v 0.659 z m 0,2.834 v 2.512 h 2.193 c 0.347,0 0.613,-0.04 0.797,-0.122 0.183,-0.082 0.309,-0.21 0.376,-0.385 0.067,-0.176 0.099,-0.42 0.099,-0.733 0,-0.345 -0.041,-0.607 -0.125,-0.789 -0.081,-0.181 -0.221,-0.305 -0.418,-0.377 -0.196,-0.071 -0.475,-0.106 -0.838,-0.106 z m 4.928,3.18 2.433,-6.673 h 1.077 l 2.486,6.673 h -0.792 l -0.5,-1.372 h -3.366 l -0.536,1.372 z m 4.465,-2.022 -1.479,-4.099 -1.47,4.099 z m 3.098,-1.702 h 3.903 v -2.94 h 0.739 v 6.664 h -0.739 v -3.074 h -3.903 v 3.074 h -0.739 v -6.664 h 0.739 z m 6.682,-2.949 v 2.914 h 0.668 l 2.716,-2.914 h 0.999 l -3.064,3.225 3.421,3.448 h -1.025 l -3.056,-3.1 h -0.659 v 3.1 h -0.739 v -6.673 z m 5.506,0 h 0.739 v 2.824 h 2.227 c 0.49,0 0.879,0.066 1.168,0.198 0.288,0.13 0.497,0.337 0.626,0.62 0.129,0.283 0.193,0.657 0.193,1.123 0,0.456 -0.067,0.823 -0.199,1.1 -0.132,0.279 -0.343,0.483 -0.632,0.613 -0.29,0.13 -0.668,0.195 -1.139,0.195 h -2.983 z m 0.739,3.493 v 2.512 h 2.201 c 0.343,0 0.607,-0.04 0.79,-0.122 0.184,-0.082 0.308,-0.21 0.375,-0.385 0.067,-0.176 0.1,-0.42 0.1,-0.733 0,-0.345 -0.042,-0.607 -0.125,-0.789 -0.083,-0.181 -0.223,-0.305 -0.419,-0.377 -0.196,-0.071 -0.475,-0.106 -0.837,-0.106 z m 6.023,3.18 h -0.74 v -6.673 h 0.74 z"
       style="fill:#959595;fill-opacity:1;fill-rule:evenodd;stroke:none"
       id="path242"
       clip-path="none" />
  </g>
</svg>
