<svg xmlns="http://www.w3.org/2000/svg" viewBox="0 0 999.11 602"><g id="katman_2" data-name="katman 2"><g id="katman_1-2" data-name="katman 1"><path d="M740,0c1.26.78,2.42,1.9,3.79,2.3,15.51,4.48,23.05,15.52,23.91,30.86.84,15,.43,30,.25,45,0,1.53-2.27,3-3.49,4.55-1.33-1.77-3.77-3.52-3.81-5.32-.33-13.15-.67-26.34-.06-39.47.81-17.54-12-29.76-29.85-29.72q-220.18.42-440.36.16c-5.83,0-11.67-.23-17.49,0-15.77.71-25.4,10-26.06,25.86-.55,13.31-.28,26.65-.37,40,0,1.33.43,2.9-.12,4-.9,1.69-2.45,3-3.72,4.52-1.25-1.48-3.22-2.79-3.6-4.46-.61-2.7-.18-5.63-.18-8.46,0-11.66-.08-23.33,0-35A34.46,34.46,0,0,1,260.62,2.88,26,26,0,0,0,265,0Z"/><path d="M0,598a45.5,45.5,0,0,1,5.87-.74q493.68,0,987.34-.07c3.52,0,6.53,0,5.79,4.81H0Z"/><path d="M0,440c2.31-.23,4.62-.66,6.92-.66q492.65,0,985.29,0c2.26,0,4.52.74,6.78,1.14-.06.68-.12,1.36-.19,2-2,.2-4,.58-6,.58q-65.73.06-131.47,0H7c-2.33,0-4.66-.09-7-.14Z"/><path d="M499.26,592.81H9.77a4.17,4.17,0,0,1-.5,0c-2.83-.43-7.48,1.42-7.34-3.4.14-4.65,4.77-3.13,7.6-3.13q386.75-.1,773.48-.07H987.5c2,0,4.11-.32,6,.22,1.44.42,2.56,1.94,3.82,3a33.47,33.47,0,0,1-4.08,3.3c-.75.44-2,.11-3,.11l-134.49,0Z"/><path d="M499,454H10c-1.83,0-3.76.26-5.45-.26C3.44,453.43,2,452,1.93,451s1.35-2.41,2.46-3.07c.87-.54,2.26-.28,3.42-.28q20.75,0,41.5,0,470,0,939.93.08c2.88,0,7.86-1.95,7.79,3.31-.07,4.85-4.85,3-7.58,3Q744.22,454.1,499,454Z"/><path d="M738.63,262.82c0-33.66-.68-67.34.17-101,1.11-43.41,33.14-78.77,76.09-85.63,40.6-6.5,84.29,19.9,97.76,59.06,15.21,44.21-3.23,90.18-44.84,111.19-16.69,8.42-34.54,10.66-53,8.35a9.57,9.57,0,0,1-3.87-.9c-1.22-.77-3.07-2.45-2.85-3.23a6.19,6.19,0,0,1,3.36-3.51c1.41-.54,3.26.05,4.91.22,36.91,3.85,69.06-12.89,85.16-44.35,24.32-47.55-2.9-106-55-117.94a81.76,81.76,0,0,0-98.36,62.55,97.35,97.35,0,0,0-2.12,20.29c-.18,47.16,0,94.32-.21,141.48,0,5.16,1.55,6.58,6.55,6.41,10.49-.36,21-.17,31.49-.05a10.22,10.22,0,0,1,5.12,1.4c.75.46,1.25,3,.79,3.43-1.3,1.21-3.16,2.51-4.82,2.55-11,.22-22,.36-33,0-5-.16-6.25,1.58-6.13,6.29.3,11.16.2,22.33,0,33.49,0,3.62,1.08,5,4.87,4.94,10.32-.21,20.66-.08,31-.07,2.74,0,5.93,0,5.91,3.66,0,3.52-3.07,3.82-5.89,3.82-12.17,0-24.33,0-36.5,0-6,0-7-1-7-7q0-52.74,0-105.48Z"/><path d="M266.3,264.35v103c0,7.19-.8,8-8.1,8h-34c-1,0-2.24.36-3-.1a38.94,38.94,0,0,1-4.35-3.8c1.48-1.19,2.92-3.36,4.43-3.41,10.49-.3,21-.44,31.49-.05,4.8.17,5.93-1.48,5.82-5.95-.26-11.33-.2-22.66,0-34,.05-3.73-1.21-4.88-4.94-4.8-10.82.23-21.66.12-32.49.06-2.89,0-6.74.66-6.61-3.87.1-4,3.65-3.65,6.45-3.66,10.83,0,21.67-.2,32.49.08,4.09.11,5.11-1.34,5.1-5.17-.1-48.82.16-97.64-.14-146.46-.25-39.66-28.65-72.5-68.51-80.1-36.93-7-75.39,14.57-89.85,50.46a82.48,82.48,0,0,0,54,110.54c11.2,3.23,22.66,3.54,34.19,2.29,1-.11,2.17-.66,2.94-.31a50.83,50.83,0,0,1,5.43,3.24c-1.4,1.33-2.75,3.74-4.22,3.82-9.94.5-20.16,2.07-29.8.42-47.46-8.15-79.18-49.42-75.89-97.49,2.37-34.57,29.43-67.94,62.92-77.61,48.49-14,96.3,10.67,112,58.49,3.1,9.48,4.31,19.92,4.48,29.95C266.64,200,266.3,232.2,266.3,264.35Z"/><path d="M500.28,322.92q-107.73,0-215.47-.08c-3.07,0-8.23,1.9-8.28-3.48s5.23-4,8.52-4.05c30.33-.1,60.66,0,91,0q170,0,340,0c3.29,0,8.19-1.19,8.35,3.73.17,5.32-5,3.81-8.1,3.82q-108,.13-216,.07Z"/><path d="M627,552.73h4.88V489.51c-5.42-1.57-8.58,0-11.26,5-6.85,12.94-14.4,25.5-21.72,38.19-.87,1.51-2,2.88-3.77,5.44l-13.86-23.61-1.1.36c0,11.74.09,23.49-.08,35.23,0,2.44-.63,6.75-1.66,7-3.77.81-7.84.43-11.76,0-.62-.06-1.43-2.45-1.44-3.77-.08-21.65,0-43.31-.09-65,0-2.89,1-4.46,4-4.28a2.78,2.78,0,0,0,.5,0c8.15-1.4,13.84,1,17.23,9.25,2.57,6.26,6.72,11.85,9.92,17.87.6,1.14,0,2.9,0,4.38-1.43-.67-3.48-.95-4.18-2.08A178.54,178.54,0,0,1,582,495c-2.46-5.28-5.82-7.21-11.66-5.52v63.28l4.82.26V537.88c0-11.16-.06-22.32.06-33.48,0-1.67.86-3.32,1.32-5,1.34,1.24,3.06,2.26,4,3.76,4.94,8.25,9.68,16.63,14.86,25.59,5-8.64,9.62-16.66,14.24-24.68,2-3.46,4.49-6.76,5.82-10.46,3.11-8.68,9.31-10.6,17.61-9.54,2.86.36,4.16,1.12,4.15,4.17q-.11,32.73,0,65.46c0,3-1.27,4.15-4.19,4.14-12.79,0-10.75.77-10.83-10-.07-9.5,0-19,0-28.49,0-1.57-.15-3.14-.3-6.19-4.38,7.55-7.89,13.89-11.75,20-.91,1.44-3,2.12-4.6,3.14.13-1.88-.33-4.1.49-5.61,5.2-9.48,10.64-18.83,16.12-28.15.76-1.28,2.23-2.15,3.36-3.21.51,1.58,1.44,3.15,1.45,4.73.12,14.49.07,29,.07,43.47Z"/><path d="M453.68,542.78V489.45l-5.34-.56v63.78c4.5.93,7.61.36,10.35-4.45,11.35-20,23.25-39.62,34.95-59.38a7.26,7.26,0,0,1,1.31-2.11,41.64,41.64,0,0,1,3.94-2.43c.71,1.34,1.92,2.65,2,4,.27,4.15.1,8.33.1,12.49,0,17-.14,34,.09,51,.06,4.53-1.2,6.25-5.91,6.12-10.49-.28-9.31.56-9.34-9.56,0-8.17-.14-16.34.11-24.5.05-1.55,1.58-3.07,2.42-4.6.82,1.56,2.31,3.11,2.35,4.69.22,9.47.11,18.95.11,28.75l4.87.3V495.2c-5.5,9.27-10.3,17.35-15.08,25.43q-9.67,16.32-19.34,32.65c-2.35,4-13.1,6.62-16.73,3.93-.95-.7-1.48-2.55-1.48-3.88-.09-21.5,0-43-.11-64.49,0-3.45,1.32-4.75,4.74-4.71,12.38.16,10.35-1,10.45,10.3.09,11.09,0,22.17,1,33.58.91-1.46,1.85-2.92,2.73-4.41,7.14-12,14.19-24.09,21.47-36,.84-1.38,2.86-2.05,4.33-3.05,0,1.86.58,4.11-.24,5.52-9.6,16.56-19.4,33-29.19,49.46a45.27,45.27,0,0,1-2.77,3.75Z"/><path d="M14.85,526.43v26.92c10.32-.61,20.66-.29,30.62-2.09,8.62-1.55,12.62-9.54,11.67-18.9a16.64,16.64,0,0,0-15.86-15.27c-8.79-.63-17.64-.63-26.46-.49-4.21.06-5.54-1.4-5.4-5.5.26-7.49.15-15,.05-22.49,0-3.11,1-4.52,4.35-4.49q19.49.18,39,0c3.33,0,4.31,1.31,4.24,4.48-.26,11.59,1.39,10.15-10,10.22-7.31.05-14.61,0-22.21,0a35.84,35.84,0,0,1-.48,5.78,3.3,3.3,0,0,1-2.07,2.18A3,3,0,0,1,20,504.94a32.6,32.6,0,0,1,.12-8.94c.19-1,2.72-2,4.21-2.07q12-.3,24-.05c3.49.07,4.53-1.19,3.4-4.6H14.85V511.9c8.63,0,16.94-.31,25.21.06,16.42.75,26.33,15.79,20.83,31.19-3.11,8.73-11.44,14.33-22.38,14.63-8.16.23-16.33-.07-24.49.11-3.61.07-4.61-1.52-4.56-4.82.11-9,.14-18,0-27-.06-3.67,1.33-5,5-5,7.49.19,15.05-.5,22.47.28a23.83,23.83,0,0,1,12,4.93c4,3.3,4,8.55,2.3,13.43-1.83,5.13-6,7.65-11,8.1a126.58,126.58,0,0,1-17,.15c-1.16-.06-3-1.94-3.19-3.16a51.58,51.58,0,0,1-.06-10.47c.09-1.15,1.32-2.2,2-3.3.84,1.19,2.22,2.31,2.41,3.59.38,2.58.11,5.26.11,8.4,5.09,0,9.72.22,14.32-.06,5-.3,8.06-3.32,8.33-7.64.29-4.63-2.46-8.47-7.61-8.8C31.44,526.06,23.3,526.43,14.85,526.43Z"/><path d="M330.21,526.48H294.8v26.08h5c0-5.85-.16-11.65.11-17.42.06-1.39,1.54-2.71,2.37-4.06.73,1.29,2,2.57,2.08,3.89.22,6.32.05,12.66.11,19,0,2.73-1.16,3.74-3.89,3.92-11.13.73-11.13.8-11.13-10.28,0-7.17.1-14.33,0-21.5-.07-3.61,1.32-5,5-5q18,.23,36,0c4.05-.06,5.18,1.65,5.1,5.4-.17,8.63-.06,17.26-.06,26.21l5,.23V489.29l-5-.23c0,7.77-.16,15.06.07,22.34.13,3.93-1.25,5.24-5.18,5.18q-18-.3-36,0c-3.7,0-5.06-1.21-5-4.9.18-7.49.15-15,0-22.49-.06-3.5,1-5.16,4.85-5.07,11.8.26,10.07-1.14,10.2,10.06a85.76,85.76,0,0,1-.12,9.49c-.11,1.15-1.43,2.17-2.19,3.25-.78-1.06-2.18-2.09-2.24-3.19-.25-4.63-.1-9.28-.1-14.29l-4.92-.53v22.61h35.56c0-7.43.2-14.57-.07-21.69-.17-4.36,1.33-5.87,5.74-5.73,10.47.32,9.32-1,9.34,9.45,0,19.49-.13,39,.1,58.47.06,4.7-1.48,6.47-6,5.85a13.67,13.67,0,0,0-3.5,0c-4.52.58-5.79-1.59-5.63-5.81.25-6.82.08-13.66.05-20.49C330.47,529.93,330.31,528.32,330.21,526.48Z"/><path d="M729.94,511.86c8.41,0,16.54-.21,24.66,0,15.4.48,25.07,12.59,22.38,27.73-1.85,10.46-10.46,17.59-22.64,18.11-8.48.37-17,0-25.48.12-3,0-4.1-1.22-4.07-4.2q.18-14,0-28c0-3.15,1-4.58,4.27-4.53,7.83.11,15.67-.18,23.49.1,9.1.33,14.47,5.35,14.61,13.09.14,7.36-4.42,12.89-11.81,13.53-5.63.48-11.32.24-17,.26-.8,0-2.29-.31-2.3-.53q-.33-8-.28-15.92c0-.16,1.76-.72,2.15-.4a4.52,4.52,0,0,1,1.77,2.68c.23,2.8.08,5.63.08,8.87,5.55,0,10.84.43,16-.13,4.41-.48,6.83-4.36,6.46-8.67s-3.54-7.54-8.88-7.74c-7.63-.28-15.28-.07-23.4-.07v27c9.92-.44,19.92-.1,29.67-1.54,8.71-1.29,13.6-9.64,12.77-18.77-.79-8.76-7.06-15.2-16.44-15.86-8.63-.6-17.31-.6-26-.43-4.23.09-5.45-1.34-5.29-5.44.29-7.48.17-15,0-22.48,0-3,.68-4.6,4.14-4.56,13,.13,26,.09,39,0,2.86,0,4.33.81,4.29,4-.15,12.62,1.17,10.58-10,10.72-7,.09-14,.08-21,.13-.3,0-.6.24-1.17.49a21.76,21.76,0,0,1-.43,5.2,4.14,4.14,0,0,1-2.7,2.13c-.45.12-1.84-1.4-1.92-2.26-.27-2.64-.57-5.44.09-7.93.33-1.21,2.75-2.57,4.27-2.62,8-.26,16-.21,24-.09,3.2.05,4.9-.75,3.69-4.58H729.94Z"/><path d="M375.19,227.29c30.31,0,60.61-.12,90.91.05,13.17.07,21.94,11.83,18.66,24.7-.35,1.38-2.56,3.45-3.46,3.25a5.62,5.62,0,0,1-3.6-3.6c-2.82-16.76-3-17-19.79-16.95q-86.67,0-173.33-.05c-3.18,0-8.16,1.39-8.05-3.87s5.12-3.6,8.25-3.61c30.14-.12,60.28-.07,90.41-.07Z"/><path d="M629.46,227.15h86.45c1.33,0,2.86-.39,4,.13a29.29,29.29,0,0,1,4.73,3.45,31.66,31.66,0,0,1-4.83,3.89c-1,.57-2.61.13-3.94.13H545.42c-11.87,0-14.37,2.33-15.15,14.07-.09,1.32.13,2.9-.51,3.89-.78,1.21-2.35,2.66-3.53,2.62a4.44,4.44,0,0,1-3.19-2.9c-1.91-13.91,3.34-25.31,19.47-25.28Q586,227.22,629.46,227.15Z"/><path d="M143.75,552.7c11-2.1,16.85-9.31,17.2-20.91.42-13.81.35-27.64.12-41.46-.08-4.8,1.36-6.43,6.23-6.26,10,.33,20,.21,30,0,3.68-.07,5,1.21,4.95,4.91q-.18,32,0,64c0,3.72-1.41,5-5,4.92-11.67-.14-10.16.58-10.18-9.69,0-14.66,0-29.32,0-44v-5.4c-4.25,0-8.05.21-11.81-.12-1.24-.11-2.36-1.61-3.54-2.48,1.2-.8,2.35-2.19,3.6-2.28,4-.3,8,.06,12-.17,3.79-.21,4.86,1.39,4.83,5-.14,16-.06,32-.06,48v5.86h4.94V489.34H166.17c0,10.43.14,20.71-.06,31-.11,6.13-.1,12.38-1.29,18.35a23.36,23.36,0,0,1-20.35,19.22c-3.39.45-5.15-.44-5-4.09.11-2.33-.21-4.71.15-7,.2-1.25,1.24-3.14,2.21-3.36,8.15-1.8,9-8.1,9.11-14.62.19-9.49.05-19,.05-28.48,0-1-.31-2.16.08-3a20.51,20.51,0,0,1,2.65-3.44c.76,1.27,2.1,2.5,2.16,3.81.26,5,.18,10,.09,15-.12,7.15,0,14.32-.63,21.44-.47,5.7-2.94,10.42-8.68,13C145.38,547.82,145,550.31,143.75,552.7Z"/><path d="M858.61,553c11.39-2.8,17-9.49,17.41-20.39.5-13.81.36-27.64.47-41.47,0-7,0-7,7.2-7,9.49,0,19,.11,28.49-.06,3.53-.06,5.08.89,5.05,4.76-.14,21.49-.11,43,0,64.48,0,3.17-1,4.54-4.29,4.51-12.49-.08-10.7.82-10.74-10.12,0-14.33,0-28.66,0-43v-5.92c-4.28,0-8.08.21-11.84-.12-1.27-.11-2.41-1.58-3.62-2.43,1.22-.81,2.39-2.23,3.66-2.33,4-.31,8,.06,12-.17,3.77-.21,4.9,1.38,4.87,5-.13,16-.05,32-.05,48v5.8l4.9.53V489.3h-30.9c0,5.69,0,11.3,0,16.91,0,9,.24,18-.21,27-.67,13.15-8.41,22.22-20.24,24.53-5.05,1-5.82.36-5.87-4.81,0-2-.32-4.07.11-6,.3-1.35,1.4-3.32,2.49-3.58,6.79-1.59,8.37-6.67,8.52-12.46.26-10,.16-20,.21-30,0-1.16-.33-2.47.09-3.46a17.5,17.5,0,0,1,2.56-3.48c.78,1.09,2,2.09,2.23,3.29a25,25,0,0,1,.12,5.48c-.06,9.33.09,18.66-.24,28-.24,7.08-2,13.49-9.57,16.67C860.18,547.89,859.83,550.38,858.61,553Z"/><path d="M119,517H96.2v26.16c7.84,0,15.76-.12,23.68.08,2.11,0,5.89.81,6,1.66a48.94,48.94,0,0,1-.18,11.78c0,.49-2.27,1.08-3.49,1.09-12.33.08-24.67,0-37,.09-3.15,0-4.45-1-4.44-4.35q.15-32.5,0-65c0-3.22,1-4.44,4.31-4.4q18,.19,36,0c3.35,0,4.74,1,4.81,4.57.2,10.14.33,10.13-9.75,10.15q-9.5,0-19,.12c-.29,0-.58.26-1.12.52a23,23,0,0,1-.42,5.22A4.13,4.13,0,0,1,93,506.88c-.46.13-1.88-1.36-2-2.21-.27-2.64-.58-5.44.06-7.94.32-1.24,2.66-2.72,4.12-2.77,8.31-.26,16.63-.12,25.38-.12l.49-4.59H85.93v63.58h12.7c6.5,0,13,.12,19.5-.12,1.12,0,2.18-1.59,3.26-2.44-1.07-.7-2.14-2-3.23-2-7.49-.18-15-.24-22.49,0-3.73.1-5-1.34-4.89-5,.18-8.83.14-17.66,0-26.5-.05-3.27.78-4.89,4.46-4.79q12.5.3,25,0c3.58-.08,4.57,1.41,4.64,4.74.21,9.83.31,9.83-9.56,9.83a83.37,83.37,0,0,1-9.49-.11c-1.65-.2-3.18-1.47-4.76-2.26,1.52-.88,3-2.35,4.57-2.52,3.62-.39,7.34.11,11-.27,1.29-.14,2.43-1.81,3.63-2.77Z"/><path d="M699.37,548.17c-8.3,0-16.61-.13-24.92.05-3.59.08-5.1-1-5-4.8.19-9,.17-18,0-27-.07-3.54,1.29-4.58,4.71-4.49q12.23.29,24.48,0c3.54-.09,4.67,1.24,4.58,4.66-.27,11.31,1.38,9.77-9.78,9.9a104.77,104.77,0,0,1-10.49-.14c-1.11-.1-2.12-1.47-3.17-2.27,1-.84,2-2.34,3.09-2.42,4-.32,8,.06,12-.31,1.36-.13,2.58-1.71,3.86-2.63-.28-.51-.56-1-.85-1.54H674.45v26c8.39,0,16.52.2,24.63-.08,4.46-.16,6.25,1,6,5.85-.45,9.37,1.26,8.9-8.9,8.89-10.33,0-20.66-.18-31,.09-4.44.11-6.2-1-6.15-5.85.23-20.82.18-41.65,0-62.47,0-4.09,1.22-5.59,5.43-5.51,11.65.23,23.32.19,35,0,3.69-.05,5.29,1.26,5,4.9,0,.5,0,1,0,1.5.06,8.33.06,8.33-8.07,8.33H674.5a38.24,38.24,0,0,1-.49,6c-.2.86-1.38,2.07-2.11,2.07a3,3,0,0,1-2.21-2,36.11,36.11,0,0,1,.14-8.94c.16-.9,2.4-2,3.72-2.05,7.32-.2,14.66-.21,22-.05,3.44.07,4.57-1.16,3.49-4.64H664.46v63.57c11.3,0,22.41.08,33.5-.14.94,0,1.84-2.08,2.76-3.19Z"/><path d="M229.23,489.28v63.25h35c1-4.21,1-4.3-2.77-4.34-7.33-.07-14.66-.16-22,0-3.77.1-5.45-1.05-5.36-5.1.22-8.82.15-17.65,0-26.48,0-3.38,1.12-4.78,4.66-4.7,8.32.19,16.65.16,25,0,3.19-.06,4.5,1,4.44,4.3-.22,11.76,1.23,10.11-10,10.25a101.87,101.87,0,0,1-10.49-.13c-1.08-.09-2-1.54-3.05-2.37,1-.83,2-2.28,3.13-2.36,4-.3,8,.08,12-.28,1.38-.13,2.63-1.67,3.94-2.57l-.82-1.58H239.46v26h22c8.53,0,8.53,0,8.49,8.74,0,.66-.05,1.33,0,2,.22,2.76-1.08,3.94-3.81,3.93q-19-.06-38,0c-3,0-4.09-1.34-4.08-4.26q.09-32.73,0-65.46c0-3.11,1.39-4,4.26-4,12.16.08,24.32.11,36.48,0,3.28,0,4.39,1.2,4.33,4.41-.21,11.89,1.2,10.17-9.94,10.3-6.16.06-12.32.05-18.48.1a5.76,5.76,0,0,0-1.35.46,24.11,24.11,0,0,1-.42,5.1,4.08,4.08,0,0,1-2.39,2.42c-.53.16-2.17-1.24-2.23-2a31.31,31.31,0,0,1,.16-8.92c.2-1,2.79-2,4.32-2,7.16-.22,14.32-.19,21.48-.06,3.23.07,4.83-.83,3.68-4.59Z"/><path d="M810.76,498.83c0,2.48.25,4.35-.1,6.1a3.12,3.12,0,0,1-2.28,2,3,3,0,0,1-2.22-2c-.27-2.81-.56-5.77.09-8.44.28-1.16,2.8-2.47,4.34-2.52,8.15-.25,16.31-.12,24.92-.12.2-1.5.38-2.86.61-4.55h-35v63.19h35.06c1.31-3,.62-4.39-3-4.34-7.33.12-14.67-.09-22,.09-3.71.09-5.42-.9-5.29-5.06.29-8.83.2-17.67,0-26.5-.07-3.39,1-4.8,4.55-4.72q12.5.29,25,0c3.28-.07,4.32,1.13,4.4,4.34.27,10.23.38,10.23-9.59,10.23a64.12,64.12,0,0,1-9-.12c-1.76-.25-3.36-1.64-5-2.52,1.6-.79,3.15-2.1,4.82-2.27a74.78,74.78,0,0,1,10.48-.09c3.4.13,4-1.42,2.95-4.45h-23.3v26.11c7.4,0,15-.12,22.57.06,2.5.06,6.84.38,7.14,1.47,1,3.53.67,7.49.37,11.24-.06.72-2.31,1.79-3.56,1.8-12.66.14-25.33,0-38,.12-3.13,0-4-1.5-4-4.34q.08-32.5,0-65c0-3.26,1.21-4.42,4.41-4.39q18.24.15,36.49,0c3.24,0,4.41,1.24,4.35,4.47-.19,11.49,1.18,10.18-10.1,10.23C824.47,498.86,818,498.83,810.76,498.83Z"/><path d="M367.44,552.49c3.69,1.32,5.58.24,6.33-3a7.45,7.45,0,0,1,1.25-3.22c.73-.84,2-1.19,3.07-1.75.5,1.1,1.54,2.26,1.42,3.28-1,8.3-8.89,13-16.53,9.79-.83-.34-1.65-2.46-1.36-3.41a151.81,151.81,0,0,1,5.92-16.4,6.58,6.58,0,0,1,4.93-3.08c11.15-.28,22.31-.12,33.47-.16,2.94,0,4.51,1.29,5.34,4.15,1.05,3.67,2.69,7.16,3.76,10.83.93,3.23,2.65,4.35,6.06,3.09a20.88,20.88,0,0,0-.63-2.76c-6.91-19.09-13.92-38.13-20.7-57.26-1-3-2.59-3.65-5.46-3.63-2.66,0-4.18.6-5.13,3.35-3.68,10.66-7.62,21.23-11.65,32.35h23.21c-1.93-5.44-3.85-10.83-6.2-17.44-1.6,4.15-2.58,7.35-4.08,10.29-.58,1.13-2.32,1.68-3.53,2.49-.34-1.4-1.3-3-.91-4.18,2.21-6.67,4.75-13.24,7.17-19.84l1.65,0a21,21,0,0,1,2.09,3.47c3.14,8.42,6.07,16.91,9.3,25.28,1.41,3.65.87,5.25-3.38,5.18-9.16-.15-18.33-.13-27.49,0-3.76,0-4.75-1.19-3.4-4.8,4.61-12.29,8.91-24.71,13.71-36.93.69-1.75,3.42-2.81,5.37-3.9.76-.43,2,.07,3-.1,6-1,8.76,1.52,10.73,7.32,6.88,20.12,14.41,40,21.68,60,2.2,6,2,6.36-4.14,6.35-10.47,0-9.12.88-12.58-8.79s-3.42-9.52-13.75-9.52c-6.5,0-13,.2-19.49-.09-3.49-.15-5.17,1.08-6,4.37C369.72,546.67,368.52,549.43,367.44,552.49Z"/><path d="M954.15,543c4.82,0,8.83.23,12.79-.06,5.48-.39,8.7-3.63,8.88-8.34s-2.73-8-8.35-8.75a46.66,46.66,0,0,0-6.48-.35c-11.5,0-11.49,0-11.5-11.75q0-11.25,0-22.5a15.33,15.33,0,0,0-.26-1.86h-4.77v63.34c10.52-.46,21.16,1.93,31.4-2.2,7.42-3,11.32-10.95,10-19.34-1.39-8.62-7.69-14.14-17.39-15.12-2-.2-4,0-6-.4-1-.23-1.69-1.54-2.52-2.36.89-.77,1.69-2.05,2.69-2.23,12.94-2.3,25.85,6.55,28,19,2.35,13.69-5.79,25.18-20.15,26.9-9.21,1.1-18.61.72-27.92.61-1.13,0-3.2-2.47-3.21-3.81-.2-21.83-.13-43.66-.17-65.5,0-2.95,1.23-4.19,4.21-4.17,13.18.09,10.63-1,10.78,9.89.13,8.62,0,17.25,0,26.14,4.87.25,9.18.3,13.45.72,8.24.82,13.3,6.12,13.2,13.55s-5.41,12.88-13.38,13.47c-4.65.34-9.33.18-14,.23-.67,0-1.76.09-1.92-.23-.81-1.61-2-3.37-1.92-5,.17-4.15.94-8.27,1.47-12.41,1,.88,2.81,1.67,2.93,2.66A81.72,81.72,0,0,1,954.15,543Z"/><path d="M380.35,273.22H284.44c-1.5,0-3.2.39-4.45-.18-1.42-.65-3.59-2.42-3.41-3.26.33-1.53,2-3,3.44-3.95,1-.61,2.6-.2,3.93-.2H478.28c3-.07,6.26,0,6.28,3.88s-3.41,3.74-6.29,3.73Z"/><path d="M623.43,273.21q-46.2,0-92.4,0c-1.66,0-3.5.34-4.93-.26-1.26-.52-2.8-2.11-2.84-3.28s1.3-3,2.51-3.61,3.24-.43,4.89-.43q93.15,0,186.3,0c.83,0,1.84-.3,2.46.07,1.81,1.06,4.66,2.17,4.92,3.65.56,3.18-2.27,3.89-5,3.89H623.43Z"/><path d="M189.25,346.7v-49c0-1.33-.39-2.87.14-3.95.78-1.6,2.23-2.88,3.39-4.29,1.39,1.4,3.06,2.63,4.06,4.26.59,1,.15,2.6.15,3.93,0,13.49.09,27-.06,40.47,0,3.64,1.09,5,4.86,4.93,9.82-.22,19.65-.08,29.48-.08,1.33,0,3-.43,3.92.19,1.55,1,2.64,2.77,3.92,4.21-1.42,1-2.83,3-4.28,3-10.48.27-21,.42-31.47,0-5.05-.18-6.64,1.24-6.49,6.38.37,12.31.09,24.65.13,37,0,10.86,1.15,12.26,11.2,16.43,1.38.57,2,2.91,3,4.44-1.5.93-3,2.67-4.51,2.68-9.17.06-17.06-8.48-17.24-19.2-.29-17.14-.08-34.3-.08-51.45Z"/><path d="M499.12,102.07q0-37.21,0-74.43c0-1.66-.24-3.45.31-4.94A4.58,4.58,0,0,1,502.35,20a4.33,4.33,0,0,1,3.56,1.85,12.12,12.12,0,0,1,.88,5.3q.06,75.18,0,150.35a11.15,11.15,0,0,1-1,5.26,4.54,4.54,0,0,1-3.66,1.62,3.86,3.86,0,0,1-2.61-2.41,19.61,19.61,0,0,1-.38-5.44Q499.1,139.28,499.12,102.07Z"/><path d="M815.37,346.85c0,16.48.1,32.95,0,49.43-.09,10.6-4.92,17.59-13.64,20.41-1.41.45-3.06,1-4.37.67-1.48-.39-3.87-1.86-3.8-2.69.15-1.6,1.38-3.92,2.76-4.47,9.76-3.95,11.37-5.94,11.43-16.3.06-12.82-.13-25.64.11-38.45.07-4.12-1.43-5.05-5.25-5-10.48.24-21,.07-31.46.1-2.79,0-5.87,0-5.8-3.71.07-3.45,3-3.88,5.87-3.88,10.48,0,21-.13,31.45.09,3.9.08,5.24-1.12,5.18-5.11-.21-13.81-.09-27.63-.08-41.45,0-3-.47-6.86,3.69-6.88,3.94,0,4,3.65,4,6.78Q815.35,321.63,815.37,346.85Z"/><path d="M481.58,473c-1.23.1-2.45.25-3.68.28-3.83.09-7.66.05-11.48.22-2.56.12-5.1.67-7.66.72-1.26,0-2.54-.67-3.81-1,.79-1.21,1.33-3.13,2.4-3.49,3.95-1.35,7.91-3.61,12.28-.48a5.5,5.5,0,0,0,5.08-.09c4.83-3.44,8.94-.18,13.19,1.08.61.18,1.19,2.94.69,4C485,481.54,471,485.4,463.9,481c-.95-.58-1.2-2.3-1.77-3.49,1.3-.27,2.75-1,3.87-.73C471.75,478.49,477,478.28,481.58,473Z"/><path d="M681.49,59.72c-2.54,2.26-4.7,4.23-7,6-.11.1-1.24-1.07-1.9-1.65,2.1-2.14,4.17-4.3,6.37-6.33A18.55,18.55,0,0,1,681.49,59.72Z"/><path d="M832.65,169.56c-.9-1.41-1.91-2.61-1.75-2.79,1.89-2.16,4-4.17,6-6.22.66.73,2,2,1.89,2.11C837,164.9,835,167,832.65,169.56Z"/><path d="M431.28,69.54c2.3,2.63,4.24,4.79,6,7.08a15.34,15.34,0,0,1-2.06,2,71.16,71.16,0,0,1-6.11-6.17C429,72.26,430.29,70.85,431.28,69.54Z"/><path d="M431.46,156.71c2.21,2.62,4.09,4.81,5.83,7.1a14.46,14.46,0,0,1-2.16,1.82,69,69,0,0,1-6-6.22A23.05,23.05,0,0,1,431.46,156.71Z"/><path d="M188.43,163.14,180.88,169a12.61,12.61,0,0,1-1.5-2,81.78,81.78,0,0,1,6.2-6C185.72,160.89,186.91,162,188.43,163.14Z"/><path d="M674.37,156.68c2.19,2.63,4.06,4.82,5.78,7.12a13.71,13.71,0,0,1-2.1,1.85,72.25,72.25,0,0,1-6-6.21A24.56,24.56,0,0,1,674.37,156.68Z"/><path d="M826.71,175.72c-2.81,2.34-5.11,4.25-7.48,6.07a12,12,0,0,1-1.55-1.84,79.4,79.4,0,0,1,6.08-6.09C823.94,173.7,825.15,174.72,826.71,175.72Z"/><path d="M681.64,77.07c-1.4.74-2.73,1.78-3,1.54-2.35-1.89-4.5-4-6.71-6.09a18.63,18.63,0,0,1,2.19-2.06C676.36,72.26,678.48,74.23,681.64,77.07Z"/><path d="M576.73,72.89c-2.65,2.32-4.91,4.32-7.27,6.19a14.17,14.17,0,0,1-1.75-1.8c2-2.2,4.08-4.34,6.29-6.33C574.14,70.82,575.37,71.91,576.73,72.89Z"/><path d="M425.08,150.63c-1.51,1-2.77,1.94-2.91,1.81-2.11-2.12-4.09-4.39-6.1-6.62.75-.46,1.94-1.48,2.17-1.3C420.46,146.31,422.53,148.29,425.08,150.63Z"/><path d="M661,143.51c2.25,2.55,4.21,4.69,6,7,.12.16-1,1.33-1.6,2-2.15-2.1-4.32-4.19-6.37-6.4A22.67,22.67,0,0,1,661,143.51Z"/><path d="M431.69,153.77a16.73,16.73,0,0,1-2-2.52,82.4,82.4,0,0,1,5.92-6.34,19.7,19.7,0,0,1,2,1.86C435.84,149.05,433.91,151.22,431.69,153.77Z"/><path d="M661.36,167a16.6,16.6,0,0,1-1.87-2.67c2-2.16,4.23-4.19,6.39-6.25.53.68,1.62,1.82,1.49,2C665.59,162.35,663.63,164.47,661.36,167Z"/><path d="M333.32,160a57.61,57.61,0,0,1-5.4,5.53c-.49.39-2.1-.6-3.2-1a38.88,38.88,0,0,1,4.13-5.19c.86-.78,2.49-.73,3.77-1.06C332.85,158.83,333.08,159.39,333.32,160Z"/><path d="M425.3,160.24c-2.5,2.1-4.77,4-7.12,5.88-.15.12-1.47-.84-1.42-1,.57-1.4,1-3,2.07-4a19.24,19.24,0,0,1,4.75-2.82C423.72,158.25,424.35,159.16,425.3,160.24Z"/><path d="M577.2,158.83c-2.72,2.94-4.33,5-6.3,6.59-.49.41-2.11-.56-3.21-.89a50.84,50.84,0,0,1,4.75-5.84C573,158.13,574.72,158.71,577.2,158.83Z"/><path d="M661.18,56.47c2.07,2.52,4,4.82,5.84,7.21.13.16-.85,1.5-1,1.45-1.41-.58-3-1-4-2.1a18.88,18.88,0,0,1-2.82-4.76C659.12,58.12,660.06,57.47,661.18,56.47Z"/><path d="M346.71,59.87c-2.49,2.1-4.73,4-7.07,5.86-.18.14-1.52-.74-1.48-.87.43-1.28.74-2.82,1.66-3.68a25.8,25.8,0,0,1,5.05-3.29A14.1,14.1,0,0,1,346.71,59.87Z"/><path d="M583.06,66.56a27.72,27.72,0,0,1-2.18-2.32,84.6,84.6,0,0,1,5.74-6.37,20.59,20.59,0,0,1,2.22,1.7Z"/><path d="M425.59,72.93c-2.81,2.33-5.11,4.24-7.5,6.06a12.45,12.45,0,0,1-1.52-1.86A76.08,76.08,0,0,1,422.66,71C422.83,70.89,424,71.91,425.59,72.93Z"/><path d="M438.56,60l-7.15,5.84a14.94,14.94,0,0,1-1.54-2,84.94,84.94,0,0,1,6.22-5.93A20.8,20.8,0,0,1,438.56,60Z"/><path d="M425,63.29a24.75,24.75,0,0,1-2.56,2c-2.18-2-4.24-4.23-6.32-6.39.68-.55,1.81-1.69,2-1.57C420.3,59.14,422.43,61.07,425,63.29Z"/><path d="M165.31,180.05l6.89-5.9a23.68,23.68,0,0,1,1.8,2.13,82.19,82.19,0,0,1-6.22,5.87A23.24,23.24,0,0,1,165.31,180.05Z"/><path d="M582.83,153.74a19.62,19.62,0,0,1-2-2.64c2-2.17,4.22-4.21,6.37-6.28.5.7,1.58,1.83,1.43,2C586.94,149.09,585,151.2,582.83,153.74Z"/><path d="M678.6,143.85c1,1.47,2,2.7,1.91,2.85-2,2.15-4.06,4.15-6.13,6.19-.57-.64-1.74-1.73-1.63-1.87C674.47,148.72,676.35,146.53,678.6,143.85Z"/><path d="M661.43,80c-1-1.36-2.06-2.52-1.93-2.67a75.06,75.06,0,0,1,5.92-6.18c.14-.13,1.37.91,2.09,1.41Z"/><path d="M334.22,74.17A61.28,61.28,0,0,1,328,78.33c-.73.38-2-.35-3.09-.58a40.48,40.48,0,0,1,4.1-5.68c.73-.74,2.45-.5,3.72-.7C333.25,72.31,333.74,73.24,334.22,74.17Z"/><path d="M589.52,163.72c-1.54,1-2.79,2-2.93,1.88-2.16-2.11-4.18-4.36-6.23-6.57.57-.49,1.52-1.5,1.65-1.4C584.4,159.45,586.7,161.39,589.52,163.72Z"/><path d="M339.7,156.81c2.15,2.56,4.05,4.76,5.8,7.06.08.12-1.13,1.21-1.73,1.86-2.11-2.17-4.24-4.33-6.25-6.58C337.47,159.09,338.64,157.94,339.7,156.81Z"/><path d="M589.46,76.85c-1.54.86-2.78,1.81-3,1.62-2.14-2-4.12-4.09-6.15-6.17.79-.61,2.11-1.87,2.28-1.73C584.83,72.4,586.89,74.43,589.46,76.85Z"/><path d="M346.6,76.59c-1.55,1-2.75,2-2.94,1.81a85.75,85.75,0,0,1-6.17-6,13,13,0,0,1,1.63-1.84C341.49,72.33,343.78,74.25,346.6,76.59Z"/><path d="M174.58,166.45a20.18,20.18,0,0,1-2.48,2.11,83.47,83.47,0,0,1-6.32-5.87,17.36,17.36,0,0,1,1.77-2.05C169.83,162.39,172,164.26,174.58,166.45Z"/><path d="M819.21,160.14c2.26,2.57,4.19,4.71,6,7,.1.13-1,1.24-1.6,1.9-2.11-2.08-4.25-4.13-6.25-6.31A17.84,17.84,0,0,1,819.21,160.14Z"/><path d="M184.87,183c-2.28-2.86-4.16-5.19-5.93-7.6a10.7,10.7,0,0,1,1.81-1.62,81.23,81.23,0,0,1,6.14,6.17C187,180.09,186,181.34,184.87,183Z"/><path d="M346.72,147.1c-2.65,2.14-4.88,4-7.19,5.65A12.39,12.39,0,0,1,338,150.9q3-3.14,6.28-6A30.2,30.2,0,0,1,346.72,147.1Z"/><path d="M326.4,56.43c2.19,2.51,4.13,4.64,5.87,6.93.15.19-1,1.37-1.53,2.1-2.19-2.11-4.4-4.2-6.49-6.41A26.54,26.54,0,0,1,326.4,56.43Z"/><path d="M839.09,180.27c-1.31,1-2.47,2-2.61,1.91-2.16-1.91-4.19-4-6.25-6a24.56,24.56,0,0,1,2-2C834.49,176,836.58,178,839.09,180.27Z"/><path d="M333.08,150.21c-1.24,1.13-2.39,2.27-2.44,2.22-2.2-2.05-4.3-4.21-6.41-6.35.68-.57,1.83-1.75,2-1.63C328.46,146.17,330.58,148.06,333.08,150.21Z"/><path d="M573.4,65.9a79.71,79.71,0,0,1-5.75-5.73c-.31-.38.7-1.87,1.11-2.84A36,36,0,0,1,574,61.47c.76.83.58,2.5.82,3.79Z"/><path d="M573.92,153.43c-2.39-2.27-4.3-4-6-5.82a2.38,2.38,0,0,1-.48-2.12,2.56,2.56,0,0,1,2-1.06C571.77,144.53,574.91,149.79,573.92,153.43Z"/></g></g></svg>