<svg xmlns="http://www.w3.org/2000/svg" viewBox="0 0 384 263.85"><g id="katman_2" data-name="katman 2"><g id="katman_1-2" data-name="katman 1"><path d="M384,180.68q-5.58,20.38-11.14,40.77c-3.06,11.29-9.65,16.92-21.3,18.49-1.21.16-2.59,1.6-3.27,2.79-6.36,11.18-15.53,18.49-28.37,20.61-15.76,2.61-27.16-6.22-28.89-22.13a9.7,9.7,0,0,0-.35-1.36H287q-60,0-120-.07c-2.73,0-4.11.76-5.41,3.24-7.27,13.85-23.25,22.66-36.66,20.5-12-1.93-19-9.44-20.15-21.6,0-.49-.13-1-.25-1.85-1.19-.07-2.38-.21-3.57-.21-6.37,0-12.75.08-19.12,0-7.93-.15-12.45-5.61-10.53-13.19,3.51-13.92,7.34-27.75,11.13-41.59,1-3.66,3.85-5.23,7.11-4.33,3.08.86,4.55,3.77,3.57,7.51C90,200.17,86.79,212.1,83.61,224c-.35,1.31-.66,2.64-1.12,4.52,8,0,15.83.09,23.61-.13.84,0,1.78-1.78,2.42-2.88,7.43-12.77,18-20.66,33.19-20.93,13.47-.25,22.67,8.34,24,21.73.06.61.14,1.22.23,2h85.23c12.86-48,25.76-96.11,38.8-144.78-1.75-.1-3.05-.23-4.35-.23-10.62,0-21.25,0-31.87,0-4.74,0-7-1.73-7.11-5.32s2.34-5.88,7-5.91c11.75-.05,23.5,0,35.25,0,8.72,0,12,3,12.88,12.06h3.93q18.75,0,37.5,0c11.31,0,16.71,5.48,16.75,16.85.06,16.26.15,32.51.09,48.76a5.49,5.49,0,0,0,2.72,5.22c4.16,2.76,8.07,5.91,12.26,8.63s7.5,6.13,9,11.05Zm-108.31-.19h27.87c12,0,24,0,36,0,4,0,6.26,1.93,6.42,5.26s-2.17,5.7-6.23,5.95c-1,.07-2,0-3,0-20.25,0-40.5.06-60.75-.06-2.63,0-3.69.79-4.32,3.29-2.45,9.67-5.11,19.3-7.66,28.95-.38,1.41-.64,2.85-1,4.67,9.15,0,17.88-.1,26.61.07,2.7.05,4.12-.68,5.47-3.19,5.86-11,14.93-18.13,27.21-20.4,19-3.51,29.59,9.29,29.72,21.44a8.36,8.36,0,0,0,.47,1.79c4.15-.63,7.24-2.76,8.35-6.37,3-9.83,5.59-19.8,8.39-30a48.55,48.55,0,0,1-5.7-.52c-3.13-.67-4.72-2.76-4.43-6,.28-3,2.1-4.71,5.15-4.94,1.37-.1,2.78.13,4.11-.1a32.17,32.17,0,0,0,4.22-1.32c-.76-1.67-1.08-3.89-2.36-4.92a176.53,176.53,0,0,0-14.6-10.48,13,13,0,0,0-6.5-2c-11.88-.19-23.75,0-35.62-.11-11.66-.09-17.91-8.21-15.08-19.48q2.17-8.72,4.62-17.36a22.2,22.2,0,0,1,21.22-16.47c4.12-.1,8.25,0,12.37,0h12.1c0-2.69,0-4.8,0-6.9,0-5.35-.59-5.92-6.09-5.93-13.5,0-27,.1-40.49-.08-3,0-4,1-4.72,3.79-5.8,22.09-11.76,44.13-17.67,66.19C278.41,170.21,277.12,175.12,275.69,180.49Zm73-61c-7.86,0-15.55,0-23.25,0-6.4,0-10.17,3-11.87,9.24q-2.06,7.58-4,15.16c-1.35,5.15-.44,6.41,4.76,6.42q15.53,0,31.05,0c1.08,0,2.17-.14,3.33-.22ZM141.44,215.81c-11.19.07-23.19,10.13-25.15,21.09-1.76,9.85,4.43,16.67,14.18,15.62,11-1.19,21.29-10.38,23.62-21.16C156,222.31,150.71,215.75,141.44,215.81Zm199.33,12.64c.23-7.39-4.38-12.33-11.79-12.62-12.36-.49-25.32,10.65-26.62,22.89-.82,7.7,4,13.31,11.79,13.85C326.52,253.41,340.4,240.84,340.77,228.45Z"/><path d="M0,165.68c2.14-2.58,4.85-3.34,8.19-3.31,18.37.13,36.74.06,55.11.07a19.76,19.76,0,0,1,3.36.15,5.48,5.48,0,0,1,.62,10.68,15.45,15.45,0,0,1-4.08.39c-18.37,0-36.74,0-55.1.07-3.36,0-6.08-.81-8.1-3.55Z"/><path d="M144.06,179.67c-49.17.24-89.78-40.14-90-89.49S94.07.24,143.35,0c49.71-.24,90.38,40.2,90.37,89.85C233.71,139.21,193.55,179.44,144.06,179.67ZM222.47,90c.15-42.95-35-78.45-78-78.71-43.4-.26-79,34.94-79.18,78.25a78.85,78.85,0,0,0,78.53,78.92C187,168.48,222.31,133.23,222.47,90Z"/><path d="M41.45,197.74c-5.5,0-11,.06-16.5,0-4.34-.06-6.92-2.28-6.9-5.73s2.56-5.48,7-5.49q16.68,0,33.36,0c4.45,0,6.89,2.07,6.85,5.61s-2.49,5.56-7,5.61C52.69,197.79,47.07,197.74,41.45,197.74Z"/><path d="M47.38,221.76c-1.87,0-3.75.13-5.61,0-3.46-.3-5.76-2.71-5.69-5.76s2.46-5.32,6-5.4c3.86-.09,7.73-.1,11.59,0,3.36.1,5.52,2.24,5.64,5.27a5.44,5.44,0,0,1-5.16,5.8,62.91,62.91,0,0,1-6.73,0Z"/><path d="M140.87,234.19a5.81,5.81,0,0,1-5.87,5.58,5.6,5.6,0,0,1-5.32-5.66,5.42,5.42,0,0,1,5.77-5.49A5.63,5.63,0,0,1,140.87,234.19Z"/><path d="M321.69,239.77a5.81,5.81,0,0,1-5.74-5.7,5.58,5.58,0,0,1,5.52-5.45,5.42,5.42,0,0,1,5.64,5.24A5.58,5.58,0,0,1,321.69,239.77Z"/><path d="M143.32,107.39a5.85,5.85,0,0,1-2.34-.25c-4.39-2.29-7,.12-9.67,3.2a97.2,97.2,0,0,1-6.86,6.91c-2.89,2.75-6.32,2.89-8.62.47s-2.16-5.45.59-8.3c3.13-3.24,6.3-6.42,9.55-9.53,1.39-1.32,2-2.44,1.3-4.52a16.51,16.51,0,0,1,4.18-17.93c5-5,11.15-6.48,17.91-4.27,2,.66,3.16.18,4.54-1.21,9-9.15,18.18-18.21,27.25-27.33,2.37-2.39,4.93-3.47,8-1.44s3.19,6.13,0,9.33Q176,65.83,162.65,79c-1.88,1.85-2.78,3.28-1.86,6.33C164.18,96.53,155.3,107.63,143.32,107.39Zm6.86-17.48a6.31,6.31,0,0,0-6.3-6.45,6.47,6.47,0,0,0-6.36,6.46,6.34,6.34,0,0,0,6.19,6.2A6.14,6.14,0,0,0,150.18,89.91Z"/><path d="M149.47,32.68c0,6.07-1.75,8.67-5.75,8.56-3.84-.11-5.5-2.67-5.5-8.51s2-8.78,5.84-8.65C147.78,24.21,149.47,26.89,149.47,32.68Z"/><path d="M86.66,95.36c-5.72,0-8.46-1.72-8.51-5.47s2.81-5.72,8.38-5.72a27.11,27.11,0,0,1,3.72.12c3.3.48,5.27,2.74,5,5.84S93.18,95.06,90,95.34C88.91,95.44,87.78,95.36,86.66,95.36Z"/><path d="M200.79,95.32a31.17,31.17,0,0,1-3.35,0,5,5,0,0,1-4.91-5.14c-.17-3.18,1.48-5.32,4.62-5.76a30.28,30.28,0,0,1,7.43-.06c3.11.34,4.88,2.32,4.95,5.52s-2,5.18-5.39,5.49c-1.11.1-2.23,0-3.35,0Z"/><path d="M149.46,146.94c0,6-1.77,8.69-5.73,8.57-3.78-.11-5.51-2.79-5.51-8.53,0-.75,0-1.5,0-2.24.22-4.06,2.39-6.4,5.83-6.3s5.24,2.3,5.4,6.26C149.49,145.44,149.46,146.19,149.46,146.94Z"/></g></g></svg>