<svg xmlns="http://www.w3.org/2000/svg" viewBox="0 0 509.82 509.76"><g id="katman_2" data-name="katman 2"><g id="katman_1-2" data-name="katman 1"><path d="M178.45,0H331.16C343.08.66,355,1.28,366.92,2c20.87,1.23,41.3,4.81,60.44,13.41,47,21.09,71.72,58.65,79.42,108.46,1.36,8.8,2,17.71,3,26.56V355.63c-.3,2.28-.62,4.56-.9,6.84C507.56,373.65,507,385,504.73,396c-10.14,48.72-37.71,83.33-84.64,101.56-22.47,8.74-46.16,11.12-70,11.36-54,.55-108.11,1.06-162.16.77-26.55-.14-53.24-.25-79.35-6.57-42.3-10.25-73.71-34.19-92.39-73.71-11.49-24.32-15-50.49-15.28-77C.32,297.26-.29,242.14.15,187a503.18,503.18,0,0,1,5-69.41C10.41,82,27.64,52.33,56.88,30.43,82,11.66,111,4.2,141.66,2,153.91,1.17,166.18.67,178.45,0Zm76.78,465v-.79c13.48,0,27,.4,40.42-.08,29.06-1.05,58.34-.68,87.09-4.31,39.3-5,65.84-27.63,75.44-66.66,3.85-15.62,5.13-32.15,5.45-48.31q1.39-70.93.88-141.92c-.18-24.52-.95-49.19-3.82-73.51-4.92-41.63-30.55-69.3-71.6-77.51-17.47-3.5-35.64-4.51-53.52-4.78q-71.34-1-142.7-.25c-22.56.26-45.31,1.06-67.59,4.29-39,5.65-65.57,31-73.44,69.34-3.4,16.62-4.57,33.88-4.93,50.89-.88,41.15-1.2,82.34-.75,123.5.31,28.51,1,57.13,3.83,85.48,2.86,29.19,16.77,52.93,43,68,16,9.24,33.79,13.09,52,13.74C181.74,463.43,218.49,464.06,255.23,465Z"/><path d="M123.94,255c.09-72.34,59.19-131.14,131.53-130.87,72.7.28,131.43,59.14,131,131.31-.43,72.42-59,130.73-131.2,130.69C182.81,386.05,123.86,327.2,123.94,255Zm131,85a84.89,84.89,0,1,0-84.76-85.05A84.72,84.72,0,0,0,255,339.94Z"/><path d="M392.29,88.41a30.51,30.51,0,1,1-1.16,61,30.51,30.51,0,1,1,1.16-61Z"/></g></g></svg>