<svg xmlns="http://www.w3.org/2000/svg" viewBox="0 0 360.01 408.86"><g id="katman_2" data-name="katman 2"><g id="katman_1-2" data-name="katman 1"><path d="M187.93,0c9.52,1.78,19.22,2.89,28.52,5.48,27,7.51,49,22.85,66.53,44.63a127.3,127.3,0,0,1,25.63,53.47c7.53,35,2.25,68-16.73,98.44-13.5,21.68-27.53,43-41.32,64.54-.63,1-1.18,2-2,3.51,4.21.77,8.1,1.43,12,2.22,22.76,4.6,45.16,10.4,65.79,21.46,11.37,6.1,21.86,13.39,28.44,24.94,7.93,13.94,6.78,27.51-2.47,40.4-7.34,10.23-17.65,16.88-28.65,22.45-22.93,11.62-47.59,17.6-72.79,21.67a451.66,451.66,0,0,1-119.95,3c-30.3-3.21-60.05-9-88.1-21.48-12.37-5.51-24-12.24-32.88-22.79-14.23-17-13-37.9,2.95-53.37,10.82-10.51,23.88-17.28,37.73-22.67,18.55-7.23,37.8-11.9,57.4-15.22,1-.17,2-.47,3.41-.81-1-1.56-1.74-2.78-2.51-4-13.71-21.39-27.7-42.61-41.08-64.21-17.29-27.9-23.63-58.34-17.87-90.66C58.32,64,85,30.67,128.37,10.72A117.35,117.35,0,0,1,168.85.62,23.66,23.66,0,0,0,171.93,0Zm-8,332.33c1-1.49,1.84-2.64,2.61-3.83Q225.77,260.92,269,193.36C291.78,158,294.68,121,275.9,83.53c-17.39-34.71-46.43-54.9-85.22-58.72-40.79-4-73.7,11.62-98.22,44.32-25.67,34.22-27.31,84.13-4.24,120.22q44.6,69.77,89.3,139.47C178.21,329.91,179,330.94,179.94,332.33Zm0,51.73c8.52,0,17.06.35,25.56-.06,29.51-1.44,58.56-5.73,86.65-15.18,12.9-4.34,25.44-9.55,35.9-18.64s10.67-17,.22-26A88.68,88.68,0,0,0,310,312.3c-20.74-10.22-43.17-14.66-65.76-18.78-8.05-1.47-11.83.83-15.86,7.51-12,19.8-24.77,39.08-37.16,58.62-3.22,5.09-7.41,7.93-13.61,6.87-4.32-.73-6.85-3.72-9.06-7.2-13.64-21.42-27.35-42.8-40.95-64.26-1.32-2.09-2.56-2.82-5.11-2.32-5.74,1.13-11.59,1.69-17.35,2.76-21.13,3.92-42,9-60.8,19.78A76.82,76.82,0,0,0,28.06,328c-5.71,5.77-5.42,12.1-.07,18.16a50.46,50.46,0,0,0,8.86,8c12.6,8.78,26.88,13.89,41.52,18C111.56,381.54,145.57,384.61,179.92,384.06Z"/><path d="M239.92,132.49a60,60,0,1,1-60.14-59.82A60.13,60.13,0,0,1,239.92,132.49ZM179.76,96.64c-19.66.17-35.87,16.46-35.8,36a36.25,36.25,0,0,0,35.94,35.83c19.71,0,36.26-16.59,36-36.17S199.26,96.47,179.76,96.64Z"/></g></g></svg>