<svg xmlns="http://www.w3.org/2000/svg" viewBox="0 0 408.78 408.86"><g id="katman_2" data-name="katman 2"><g id="katman_1-2" data-name="katman 1"><path d="M78.22,408.86h-4c-2.51-2.14-5.18-4.11-7.5-6.43q-31-30.84-61.84-61.8c-6.53-6.53-6.51-10.12.08-16.72q54.2-54.2,108.4-108.38a46.39,46.39,0,0,1,4.88-3.55,46.73,46.73,0,0,1-4.9-3.6Q65.89,161,18.51,113.53C3.66,98.64,3.34,78.83,17.81,63.8c8.59-8.91,17.43-17.58,26.24-26.27,5.66-5.58,12.32-9.15,20.44-9.62,11.21-.65,20,4.2,27.64,11.87q47.38,47.46,94.81,94.88c1.12,1.12,2.05,2.44,4,4.77,1.3-2,2-3.48,3.11-4.59q65-65.13,130.09-130.17c6.2-6.21,10-6.22,16.15-.08q31.2,31.19,62.36,62.4c2.23,2.24,4.1,4.82,6.13,7.24v4c-1.64,2.22-3,4.68-5,6.61Q339,149.82,274,214.69a39.33,39.33,0,0,1-4.74,3.35,55.08,55.08,0,0,1,4.54,3.49q35.31,35.25,70.5,70.63a28.4,28.4,0,0,1,6.09,9.57c4.94,12.9,9.44,26,14.1,39q9.15,25.5,18.3,51c1.32,3.64,1.52,7.08-1.4,10s-6.35,3-10,1.6c-.37-.15-.76-.24-1.13-.37-30.25-10.48-60.51-20.89-90.7-31.52a22.84,22.84,0,0,1-8.28-5.17q-35.73-35.4-71.17-71.1a34.61,34.61,0,0,1-3-4.38c-1.8,2.23-2.69,3.57-3.81,4.7Q139.07,349.7,84.83,403.85C82.89,405.79,80.43,407.2,78.22,408.86ZM330.41,134.23c-7.91-7.9-16-16-24.07-24.08a27.82,27.82,0,0,1-3.37-3.91,7.45,7.45,0,0,1,0-8.63c1.81-2.84,4.59-4.38,7.81-3.51a15.55,15.55,0,0,1,6.34,3.7c7.75,7.49,15.29,15.2,22.93,22.81a19.44,19.44,0,0,0,1.73,1.5l17.65-17.44C356,101.38,352,98,348.62,94.11c-1.72-2-3.32-5.23-3-7.65s2.7-5.11,4.92-6.47c3.14-1.93,6.48-.44,9,2.07,3.94,3.9,7.76,7.93,10.95,11.21L387.6,76.2,332.14,20.71l-128.93,129,56,56,13.65-13.54c-3.05-2.78-6.27-5.55-9.29-8.51q-8.7-8.52-17.22-17.23c-2.37-2.42-3.58-5.32-2.41-8.74,1.08-3.16,3.41-5.65,6.65-5.39a14,14,0,0,1,8,3.37c7.78,7.26,15.16,15,22.7,22.47,1,1,2,1.9,2.37,2.2l17.68-17.68c-3.69-3.48-8-7.09-11.73-11.21-4.72-5.2-2.24-13.11,4.37-13.64,2.62-.22,5.9,1.4,8.05,3.18,4,3.34,7.44,7.4,10.79,10.83C319,145.63,324.6,140,330.41,134.23ZM184.05,280.88l-55.66-55.76L20.93,332.68,76.21,388,97.5,366.43c-8-8-16.34-16.33-24.68-24.73-4.41-4.44-4.86-9.44-1.28-13s8.48-3,13,1.45q5.55,5.47,11,11c4.72,4.78,9.42,9.58,13.88,14.12l18.09-18.09c-1.65-1.34-3.64-2.7-5.35-4.36a82.62,82.62,0,0,1-7.92-8.4,7.68,7.68,0,0,1,.81-10.21,8.09,8.09,0,0,1,10.23-1,32.3,32.3,0,0,1,4.18,3.68c3.18,3.11,6.31,6.27,8.79,8.74l17.82-17.81a24.66,24.66,0,0,1-3.1-2.34c-7.38-7.3-14.85-14.5-21.93-22.08a14.7,14.7,0,0,1-3.55-8c-.33-3.23,2.08-5.66,5.22-6.79,3.54-1.27,6.56-.05,9.09,2.46q10.64,10.53,21.16,21.16c1.65,1.66,3.1,3.52,4.57,5.21ZM96.31,105.54,310,319.28l18.61-18.72L115,86.93ZM84.07,118.47l-18,17.87L279.51,349.81l17.93-17.92Zm18.29-43.71C94,66,85.67,56.58,76.57,48.07,70.31,42.22,62,43,56.06,48.81,46.93,57.74,37.86,66.73,29,75.91c-7.25,7.51-7.06,17.48.16,25,3.32,3.45,6.77,6.78,10.14,10.18,4.55,4.58,9.08,9.19,13.26,13.42Q78.13,99,102.36,74.76Zm236,242-42.89,42.89,66.53,23C353.9,360,346.07,338.15,338.4,316.78Z"/></g></g></svg>