<svg xmlns="http://www.w3.org/2000/svg" viewBox="0 0 409.6 408.62"><g id="katman_2" data-name="katman 2"><g id="katman_1-2" data-name="katman 1"><path d="M0,216.17v-24c.62-5.24,1.14-10.5,1.88-15.72,5.64-40.15,21.28-76,48.37-106.18C99,16,160.2-6.89,232.67,1.8,273.42,6.68,309.27,23.55,340,50.74c35.81,31.7,58.22,71.09,66.46,118.28,1.34,7.68,2.12,15.46,3.15,23.19v24c-.25,1.41-.54,2.81-.73,4.23-1,7.37-1.55,14.82-2.94,22.11a199.41,199.41,0,0,1-55.5,105.31c-30.6,30.84-67.38,50.26-110.33,57.65-7.72,1.33-15.53,2.11-23.3,3.15h-24c-5.4-.65-10.82-1.19-16.21-1.95-40.38-5.7-76.08-21.8-106.65-48.74C34,326.2,11.43,286.71,3.15,239.37,1.8,231.69,1,223.9,0,216.17ZM192.63,132l-68.88-4.77c-4.59,14.79-9.8,56.16-8.14,64.75h77ZM217,191.89h77.56a313.38,313.38,0,0,0-8.41-64.21L217,132ZM98.6,123c-.1,0-.85-.23-1.61-.41-14.62-3.45-29.28-6.77-43.84-10.45-2.88-.73-3.92,0-5.25,2.28A174.24,174.24,0,0,0,28.19,166c-1.75,8.51-2.74,17.17-4.1,25.95H89.86C92.8,168.76,95.68,146,98.6,123ZM360.77,295.45a177.07,177.07,0,0,0,24.29-79H319c-1,11.45-1.67,22.72-3.11,33.89s-3.7,22.4-5.55,33.29ZM311.18,124.1c2.83,22.43,5.67,45,8.55,67.87H385.1a177.27,177.27,0,0,0-24.3-78.92Zm-94.11,92.25v58.86l69,4.73a315.55,315.55,0,0,0,8.44-63.59Zm-93.48,63.12,69-4.29V216.4h-77.1C114.35,226.9,119.08,263.35,123.59,279.47ZM24.78,216.34a17.25,17.25,0,0,0-.08,1.87A177.64,177.64,0,0,0,47.19,292.7c1.13,2,2.4,1.91,4.25,1.44,8.49-2.19,17-4.43,25.52-6.37,7.34-1.68,14.77-3,21.58-4.33-2.88-22.53-5.72-44.69-8.59-67.1ZM280,104.11c-4.74-10.64-8.57-20.27-13.24-29.49-7.25-14.34-16.34-27.42-28.93-37.73-6.17-5-12.85-9.17-20.73-11.09v82ZM192.57,381.38v-82l-62.3,3.71c7.86,21.8,17.21,41.77,32.48,58.48C170.94,370.49,180.32,377.69,192.57,381.38Zm0-355.76c-13.73,4.08-23.86,12.53-32.54,22.81-13.6,16.11-22.53,34.75-29.59,55.23l62.13,4.1Zm24.31,273.77v81.92a54.44,54.44,0,0,0,21.6-11.77c16.86-14.36,27.22-33.13,35.74-53.09,1.69-4,3.07-8.08,4.92-13Zm-110.93,7-43.46,9.13c21,26.08,46.07,44.85,76.62,56.31C124.19,352.16,113.93,330.27,106,306.36Zm198.13.76C299,319,294.76,330.31,289.26,341s-12.2,20.63-18.58,31.23c30-11.79,54.77-30.21,75.63-55.84ZM271.89,36.58c6.07,10.24,12.63,20.13,18,30.64s9.56,21.83,14.56,33.48L346.34,92C325.71,66.67,301.22,48.38,271.89,36.58ZM106.2,100.15C113.74,76.91,124,55.9,138.11,36.81c-29.26,11.37-53.54,29.32-74,54.08Z"/></g></g></svg>