<svg xmlns="http://www.w3.org/2000/svg" viewBox="0 0 636.64 637.95"><g id="katman_2" data-name="katman 2"><g id="katman_1-2" data-name="katman 1"><path d="M0,638,34.1,513.21c3.09-11.3,6.41-22.55,9.13-33.94a14.17,14.17,0,0,0-1-9.27C12.37,415.8-1.28,357.7,3.37,296.18,11.2,192.5,58.94,110.89,144.92,52.61,202.25,13.75,266.56-4.18,335.58.82c125,9,217.61,70.46,269.92,183.94,51,110.71,38.74,219.25-32.42,318.56-51.11,71.35-122.16,113-209.17,126-67.31,10.05-131.28-1.51-191.84-32.51a15.26,15.26,0,0,0-9.92-.89C110.54,609.18,59,622.74,7.44,636.23,5.36,636.77,3.25,637.2,0,638Zm75.91-75.14c2-.37,2.81-.48,3.63-.7,29.09-7.64,58.21-15.16,87.23-23,6-1.63,10.69-1,16.1,2.25,58.4,34.79,121.32,46.28,187.81,32.66C511.33,545.17,601.6,412.21,577.53,270.84c-20.43-120-124.11-211.93-245.41-217C265,51,204.72,70.19,152.84,112.94,93.56,161.78,61.2,225.19,56.46,301.87,53,358.34,67.17,410.71,97.7,458.42c3.53,5.51,4.25,10.24,2.44,16.55C91.85,503.84,84.11,532.87,75.91,562.81Z"/><path d="M216,170.81c14.36-3.72,20.87,5,25.69,17.56,7.05,18.36,14.84,36.44,22.59,54.53,2.61,6.09,2.54,11.57-1.41,16.87-6.34,8.52-12.52,17.18-19.21,25.41-4.21,5.17-4.87,9.85-1.43,15.68,25.81,43.63,62,75.14,109.16,93.91,6.13,2.44,11.19,1.5,15.39-3.72,8-10,16.41-19.76,24.11-30,4.46-5.95,9.68-7.77,16.12-4.76,22.42,10.49,44.81,21.05,66.91,32.19,2.68,1.35,5,6.41,5,9.7-.57,33.53-10.43,49.72-46.47,64.82-20.39,8.54-41.51,6.44-62.5.59-75.95-21.17-131.94-68.93-176.79-131.82-14.1-19.77-26.84-40.17-32.2-64.2-7.63-34.24.83-63.92,26.06-88.62C194.9,171.12,204.54,169.24,216,170.81Z"/></g></g></svg>